<svg width="775" height="238" viewBox="0 0 775 238" fill="none" xmlns="http://www.w3.org/2000/svg">
<path d="M345.366 158.572H326.552L276.159 237.859H255.329L307.067 158.572H324.537L376.274 79.2861H394.416L446.154 0H465.639L415.246 79.2861H395.759L345.366 158.572Z" fill="url(#paint0_linear_37_10)"/>
<g filter="url(#filter0_n_37_10)">
<path d="M1.2964 138.126L32.1743 50.3242H49.3811L80.2591 138.126H65.4094L58.6917 118.444H22.9817L16.1461 138.126H1.2964ZM26.9887 106.069H54.4489L38.8921 60.1061H42.7813L26.9887 106.069ZM87.1398 138.126V50.3242H119.078C124.971 50.3242 130.157 51.4242 134.635 53.6241C139.192 55.7455 142.728 58.8883 145.242 63.0525C147.756 67.1381 149.014 72.0488 149.014 77.7843C149.014 83.4414 147.717 88.3127 145.124 92.3983C142.61 96.484 139.114 99.6268 134.635 101.827C130.157 104.027 124.971 105.127 119.078 105.127H101.047V138.126H87.1398ZM101.047 92.7519H119.432C122.575 92.7519 125.325 92.1233 127.682 90.8662C130.039 89.6091 131.885 87.8806 133.221 85.6806C134.557 83.4021 135.224 80.7307 135.224 77.6665C135.224 74.6023 134.557 71.9702 133.221 69.7702C131.885 67.4917 130.039 65.7632 127.682 64.5846C125.325 63.3275 122.575 62.6989 119.432 62.6989H101.047V92.7519ZM159.795 138.126V50.3242H217.662V62.6989H173.702V87.9199H215.305V100.295H173.702V125.751H217.662V138.126H159.795ZM219.263 138.126L247.902 93.6947L219.735 50.3242H235.527L259.098 86.6235H252.38L275.716 50.3242H291.508L263.459 93.6947L292.097 138.126H276.305L252.38 100.884L259.098 101.002L234.938 138.126H219.263Z" fill="url(#paint1_linear_37_10)"/>
</g>
<g filter="url(#filter1_n_37_10)">
<path d="M603.737 78.8012C601.189 78.8012 598.818 78.3336 596.625 77.3983C594.464 76.463 592.578 75.1729 590.965 73.528C589.385 71.8509 588.143 69.8835 587.24 67.6259C586.337 65.3683 585.885 62.8848 585.885 60.1757C585.885 57.4987 586.321 55.0315 587.192 52.7738C588.095 50.4839 589.353 48.5165 590.965 46.8717C592.578 45.1946 594.464 43.9045 596.625 43.0014C598.786 42.0661 601.157 41.5985 603.737 41.5985C606.285 41.5985 608.559 42.0339 610.558 42.9047C612.59 43.7755 614.299 44.9204 615.686 46.3395C617.073 47.7264 618.073 49.2422 618.686 50.8871L613.558 53.306C612.784 51.3709 611.542 49.8066 609.833 48.6133C608.155 47.3877 606.124 46.7749 603.737 46.7749C601.35 46.7749 599.238 47.3393 597.399 48.4682C595.561 49.597 594.126 51.1612 593.094 53.1608C592.094 55.1605 591.594 57.4987 591.594 60.1757C591.594 62.8526 592.094 65.207 593.094 67.2389C594.126 69.2385 595.561 70.8027 597.399 71.9315C599.238 73.0281 601.35 73.5764 603.737 73.5764C606.124 73.5764 608.155 72.9797 609.833 71.7864C611.542 70.5931 612.784 69.0289 613.558 67.0937L618.686 69.5126C618.073 71.1252 617.073 72.6411 615.686 74.0602C614.299 75.4793 612.59 76.6242 610.558 77.495C608.559 78.3658 606.285 78.8012 603.737 78.8012ZM619.912 78.2207L632.587 42.179H639.65L652.325 78.2207H646.23L643.472 70.1416H628.813L626.007 78.2207H619.912ZM630.458 65.0619H641.73L635.344 46.1944H636.941L630.458 65.0619ZM655.15 78.2207V42.179H668.26C670.679 42.179 672.808 42.6305 674.646 43.5336C676.517 44.4044 677.968 45.6945 679 47.4038C680.032 49.081 680.548 51.0967 680.548 53.4511C680.548 55.7733 680.016 57.7729 678.952 59.45C677.92 61.1271 676.484 62.4172 674.646 63.3202C672.808 64.2233 670.679 64.6748 668.26 64.6748H660.858V78.2207H655.15ZM660.858 59.5951H668.405C669.695 59.5951 670.824 59.3371 671.792 58.8211C672.759 58.305 673.517 57.5955 674.065 56.6924C674.614 55.7571 674.888 54.6606 674.888 53.4027C674.888 52.1449 674.614 51.0645 674.065 50.1614C673.517 49.2261 672.759 48.5165 671.792 48.0328C670.824 47.5167 669.695 47.2587 668.405 47.2587H660.858V59.5951ZM684.974 78.2207V42.179H690.683V78.2207H684.974ZM703.09 78.2207V47.2587H693.511V42.179H718.184V47.2587H708.75V78.2207H703.09ZM715.398 78.2207L728.073 42.179H735.136L747.811 78.2207H741.716L738.958 70.1416H724.3L721.494 78.2207H715.398ZM725.945 65.0619H737.217L730.831 46.1944H732.427L725.945 65.0619ZM750.636 78.2207V42.179H756.345V73.141H771.922V78.2207H750.636Z" fill="url(#paint2_linear_37_10)"/>
</g>
<g filter="url(#filter2_n_37_10)">
<path d="M445.847 138.693V102.652H451.169L464.715 121.422H462.054L475.358 102.652H480.679V138.693H475.019V109.376L477.148 109.957L463.554 128.534H462.973L449.669 109.957L451.556 109.376V138.693H445.847ZM483.486 138.693L496.162 102.652H503.225L515.9 138.693H509.804L507.047 130.614H492.388L489.582 138.693H483.486ZM494.033 125.535H505.305L498.919 106.667H500.516L494.033 125.535ZM518.724 138.693V102.652H523.32L543.542 130.566L541.365 130.904V102.652H547.025V138.693H542.43L522.353 110.586L524.433 110.199V138.693H518.724ZM549.844 138.693L562.519 102.652H569.582L582.257 138.693H576.162L573.404 130.614H558.745L555.939 138.693H549.844ZM560.39 125.535H571.662L565.276 106.667H566.873L560.39 125.535ZM600.501 139.274C597.953 139.274 595.583 138.806 593.389 137.871C591.229 136.936 589.326 135.646 587.681 134.001C586.068 132.324 584.81 130.356 583.907 128.099C583.004 125.841 582.553 123.357 582.553 120.648C582.553 117.971 582.988 115.504 583.859 113.246C584.762 110.957 586.02 108.989 587.632 107.344C589.245 105.667 591.132 104.377 593.293 103.474C595.454 102.539 597.824 102.071 600.404 102.071C602.952 102.071 605.226 102.507 607.226 103.377C609.257 104.248 610.967 105.393 612.354 106.812C613.741 108.199 614.74 109.715 615.353 111.36L610.273 113.827C609.532 111.86 608.306 110.279 606.597 109.086C604.887 107.86 602.823 107.248 600.404 107.248C598.018 107.248 595.905 107.812 594.067 108.941C592.228 110.07 590.793 111.634 589.761 113.634C588.761 115.633 588.261 117.971 588.261 120.648C588.261 123.325 588.777 125.68 589.809 127.712C590.874 129.711 592.325 131.275 594.163 132.404C596.002 133.501 598.114 134.049 600.501 134.049C602.501 134.049 604.323 133.646 605.968 132.84C607.645 132.001 608.983 130.84 609.983 129.356C610.983 127.841 611.483 126.083 611.483 124.083V121.616L614.047 123.938H600.404V119.1H617.143V122.487C617.143 125.131 616.692 127.502 615.789 129.598C614.885 131.662 613.66 133.42 612.112 134.871C610.564 136.323 608.79 137.419 606.79 138.161C604.791 138.903 602.694 139.274 600.501 139.274ZM621.52 138.693V102.652H645.274V107.731H627.229V118.084H644.306V123.164H627.229V133.614H645.274V138.693H621.52ZM649.124 138.693V102.652H654.446L667.992 121.422H665.331L678.635 102.652H683.956V138.693H678.296V109.376L680.425 109.957L666.83 128.534H666.25L652.946 109.957L654.833 109.376V138.693H649.124ZM689.956 138.693V102.652H713.71V107.731H695.665V118.084H712.742V123.164H695.665V133.614H713.71V138.693H689.956ZM717.56 138.693V102.652H722.156L742.378 130.566L740.201 130.904V102.652H745.861V138.693H741.265L721.189 110.586L723.269 110.199V138.693H717.56ZM758.259 138.693V107.731H748.68V102.652H773.353V107.731H763.919V138.693H758.259Z" fill="url(#paint3_linear_37_10)"/>
</g>
<g filter="url(#filter3_n_37_10)">
<path d="M600.388 199.166V163.124H606.097V194.086H621.675V199.166H600.388ZM625.016 199.166V163.124H630.724V199.166H625.016ZM636.745 199.166V163.124H642.067L655.613 181.895H652.952L666.256 163.124H671.578V199.166H665.917V169.849L668.046 170.429L654.452 189.007H653.871L640.567 170.429L642.454 169.849V199.166H636.745ZM677.578 199.166V163.124H683.286V199.166H677.578ZM695.693 199.166V168.204H686.115V163.124H710.787V168.204H701.354V199.166H695.693ZM713.604 199.166V163.124H737.358V168.204H719.313V178.557H736.39V183.637H719.313V194.086H737.358V199.166H713.604ZM741.208 199.166V163.124H753.012C756.754 163.124 759.995 163.882 762.736 165.398C765.51 166.882 767.655 168.978 769.171 171.687C770.687 174.396 771.444 177.541 771.444 181.121C771.444 184.669 770.687 187.813 769.171 190.555C767.655 193.264 765.51 195.376 762.736 196.892C759.995 198.408 756.754 199.166 753.012 199.166H741.208ZM746.917 194.086H753.109C755.657 194.086 757.866 193.554 759.737 192.49C761.64 191.426 763.107 189.926 764.139 187.991C765.171 186.056 765.687 183.766 765.687 181.121C765.687 178.476 765.155 176.203 764.091 174.3C763.059 172.365 761.608 170.865 759.737 169.801C757.866 168.736 755.657 168.204 753.109 168.204H746.917V194.086Z" fill="url(#paint4_linear_37_10)"/>
</g>
<defs>
<filter id="filter0_n_37_10" x="1.29639" y="50.3242" width="290.801" height="87.8018" filterUnits="userSpaceOnUse" color-interpolation-filters="sRGB">
<feFlood flood-opacity="0" result="BackgroundImageFix"/>
<feBlend mode="normal" in="SourceGraphic" in2="BackgroundImageFix" result="shape"/>
<feTurbulence type="fractalNoise" baseFrequency="0.46667614579200745 0.46667614579200745" stitchTiles="stitch" numOctaves="3" result="noise" seed="9213" />
<feColorMatrix in="noise" type="luminanceToAlpha" result="alphaNoise" />
<feComponentTransfer in="alphaNoise" result="coloredNoise1">
<feFuncA type="discrete" tableValues="0 0 0 0 0 0 0 1 1 1 1 1 1 1 1 1 1 1 1 1 1 1 1 1 1 1 1 1 1 1 1 1 1 1 1 1 1 1 1 1 1 1 1 0 0 0 0 0 0 0 0 0 0 0 0 0 0 0 0 0 0 0 0 0 0 0 0 0 0 0 0 0 0 0 0 0 0 0 0 0 0 0 0 0 0 0 0 0 0 0 0 0 0 0 0 0 0 0 0 0 "/>
</feComponentTransfer>
<feComposite operator="in" in2="shape" in="coloredNoise1" result="noise1Clipped" />
<feFlood flood-color="#EFC285" result="color1Flood" />
<feComposite operator="in" in2="noise1Clipped" in="color1Flood" result="color1" />
<feMerge result="effect1_noise_37_10">
<feMergeNode in="shape" />
<feMergeNode in="color1" />
</feMerge>
</filter>
<filter id="filter1_n_37_10" x="585.885" y="41.5986" width="186.037" height="37.2021" filterUnits="userSpaceOnUse" color-interpolation-filters="sRGB">
<feFlood flood-opacity="0" result="BackgroundImageFix"/>
<feBlend mode="normal" in="SourceGraphic" in2="BackgroundImageFix" result="shape"/>
<feTurbulence type="fractalNoise" baseFrequency="0.74413824081420898 0.74413824081420898" stitchTiles="stitch" numOctaves="3" result="noise" seed="9213" />
<feColorMatrix in="noise" type="luminanceToAlpha" result="alphaNoise" />
<feComponentTransfer in="alphaNoise" result="coloredNoise1">
<feFuncA type="discrete" tableValues="0 0 0 0 0 0 0 1 1 1 1 1 1 1 1 1 1 1 1 1 1 1 1 1 1 1 1 1 1 1 1 1 1 1 1 1 1 1 1 1 1 1 1 0 0 0 0 0 0 0 0 0 0 0 0 0 0 0 0 0 0 0 0 0 0 0 0 0 0 0 0 0 0 0 0 0 0 0 0 0 0 0 0 0 0 0 0 0 0 0 0 0 0 0 0 0 0 0 0 0 "/>
</feComponentTransfer>
<feComposite operator="in" in2="shape" in="coloredNoise1" result="noise1Clipped" />
<feFlood flood-color="#EFC285" result="color1Flood" />
<feComposite operator="in" in2="noise1Clipped" in="color1Flood" result="color1" />
<feMerge result="effect1_noise_37_10">
<feMergeNode in="shape" />
<feMergeNode in="color1" />
</feMerge>
</filter>
<filter id="filter2_n_37_10" x="445.847" y="102.071" width="327.505" height="37.2021" filterUnits="userSpaceOnUse" color-interpolation-filters="sRGB">
<feFlood flood-opacity="0" result="BackgroundImageFix"/>
<feBlend mode="normal" in="SourceGraphic" in2="BackgroundImageFix" result="shape"/>
<feTurbulence type="fractalNoise" baseFrequency="0.74413824081420898 0.74413824081420898" stitchTiles="stitch" numOctaves="3" result="noise" seed="9213" />
<feColorMatrix in="noise" type="luminanceToAlpha" result="alphaNoise" />
<feComponentTransfer in="alphaNoise" result="coloredNoise1">
<feFuncA type="discrete" tableValues="0 0 0 0 0 0 0 1 1 1 1 1 1 1 1 1 1 1 1 1 1 1 1 1 1 1 1 1 1 1 1 1 1 1 1 1 1 1 1 1 1 1 1 0 0 0 0 0 0 0 0 0 0 0 0 0 0 0 0 0 0 0 0 0 0 0 0 0 0 0 0 0 0 0 0 0 0 0 0 0 0 0 0 0 0 0 0 0 0 0 0 0 0 0 0 0 0 0 0 0 "/>
</feComponentTransfer>
<feComposite operator="in" in2="shape" in="coloredNoise1" result="noise1Clipped" />
<feFlood flood-color="#EFC285" result="color1Flood" />
<feComposite operator="in" in2="noise1Clipped" in="color1Flood" result="color1" />
<feMerge result="effect1_noise_37_10">
<feMergeNode in="shape" />
<feMergeNode in="color1" />
</feMerge>
</filter>
<filter id="filter3_n_37_10" x="600.388" y="163.124" width="171.056" height="36.042" filterUnits="userSpaceOnUse" color-interpolation-filters="sRGB">
<feFlood flood-opacity="0" result="BackgroundImageFix"/>
<feBlend mode="normal" in="SourceGraphic" in2="BackgroundImageFix" result="shape"/>
<feTurbulence type="fractalNoise" baseFrequency="0.74413824081420898 0.74413824081420898" stitchTiles="stitch" numOctaves="3" result="noise" seed="9213" />
<feColorMatrix in="noise" type="luminanceToAlpha" result="alphaNoise" />
<feComponentTransfer in="alphaNoise" result="coloredNoise1">
<feFuncA type="discrete" tableValues="0 0 0 0 0 0 0 1 1 1 1 1 1 1 1 1 1 1 1 1 1 1 1 1 1 1 1 1 1 1 1 1 1 1 1 1 1 1 1 1 1 1 1 0 0 0 0 0 0 0 0 0 0 0 0 0 0 0 0 0 0 0 0 0 0 0 0 0 0 0 0 0 0 0 0 0 0 0 0 0 0 0 0 0 0 0 0 0 0 0 0 0 0 0 0 0 0 0 0 0 "/>
</feComponentTransfer>
<feComposite operator="in" in2="shape" in="coloredNoise1" result="noise1Clipped" />
<feFlood flood-color="#EFC285" result="color1Flood" />
<feComposite operator="in" in2="noise1Clipped" in="color1Flood" result="color1" />
<feMerge result="effect1_noise_37_10">
<feMergeNode in="shape" />
<feMergeNode in="color1" />
</feMerge>
</filter>
<linearGradient id="paint0_linear_37_10" x1="256.001" y1="119.602" x2="465.639" y2="119.602" gradientUnits="userSpaceOnUse">
<stop stop-color="#D8B98A"/>
<stop offset="1" stop-color="#FDEBCD"/>
</linearGradient>
<linearGradient id="paint1_linear_37_10" x1="294" y1="16.126" x2="3.28754" y2="16.126" gradientUnits="userSpaceOnUse">
<stop stop-color="#C6A369"/>
<stop offset="1" stop-color="#AE8340"/>
</linearGradient>
<linearGradient id="paint2_linear_37_10" x1="773.225" y1="28.2207" x2="585.349" y2="28.2207" gradientUnits="userSpaceOnUse">
<stop stop-color="#C6A369"/>
<stop offset="1" stop-color="#AE8340"/>
</linearGradient>
<linearGradient id="paint3_linear_37_10" x1="774.122" y1="88.6934" x2="445.835" y2="88.6934" gradientUnits="userSpaceOnUse">
<stop stop-color="#C6A369"/>
<stop offset="1" stop-color="#AE8340"/>
</linearGradient>
<linearGradient id="paint4_linear_37_10" x1="773.663" y1="149.166" x2="598.642" y2="149.166" gradientUnits="userSpaceOnUse">
<stop stop-color="#C6A369"/>
<stop offset="1" stop-color="#AE8340"/>
</linearGradient>
</defs>
</svg>
